<?xml version="1.0" standalone="no"?>
<!DOCTYPE svg PUBLIC "-//W3C//DTD SVG 20010904//EN"
 "http://www.w3.org/TR/2001/REC-SVG-20010904/DTD/svg10.dtd">
<svg version="1.0" xmlns="http://www.w3.org/2000/svg"
 width="883.000000pt" height="883.000000pt" viewBox="0 0 883.000000 883.000000"
 preserveAspectRatio="xMidYMid meet">

<g transform="translate(0.000000,883.000000) scale(0.100000,-0.100000)"
fill="#000000" stroke="none">
<path d="M4055 6509 c-217 -19 -454 -60 -759 -129 -141 -31 -517 -161 -679
-234 -180 -81 -352 -169 -471 -242 -17 -10 -10 -25 82 -165 85 -130 127 -191
208 -306 9 -13 20 -9 75 24 167 102 531 265 739 331 194 62 431 117 625 146
314 47 814 47 1125 0 392 -59 793 -184 1111 -345 64 -33 119 -59 123 -59 5 0
46 -23 93 -50 47 -28 89 -48 92 -44 3 3 17 23 31 44 14 21 83 124 153 230 71
105 127 193 125 195 -7 6 -187 104 -263 143 -448 229 -943 375 -1515 448 -148
18 -740 27 -895 13z"/>
<path d="M2586 5384 c-22 -22 -20 -70 4 -94 20 -20 33 -20 571 -20 345 0 557
4 569 10 27 14 35 65 16 95 l-16 25 -565 0 c-499 0 -565 -2 -579 -16z"/>
<path d="M5106 5378 c-22 -31 -20 -64 4 -88 20 -20 33 -20 575 -20 542 0 555
0 575 20 24 24 26 72 4 94 -14 14 -80 16 -579 16 l-564 0 -15 -22z"/>
<path d="M2700 5200 c-11 -11 -20 -31 -20 -45 0 -14 9 -34 20 -45 19 -19 33
-20 464 -20 493 0 476 -2 476 65 0 66 7 65 -482 65 -425 0 -439 -1 -458 -20z"/>
<path d="M5220 5193 c-24 -30 -20 -69 7 -90 13 -10 121 -13 460 -13 437 0 443
0 464 21 24 24 20 75 -8 97 -13 9 -121 12 -459 12 l-443 0 -21 -27z"/>
<path d="M2832 5018 c-17 -17 -17 -1719 0 -1736 16 -16 70 -16 86 0 17 17 17
1719 0 1736 -7 7 -26 12 -43 12 -17 0 -36 -5 -43 -12z"/>
<path d="M3020 5011 c-7 -13 -10 -300 -10 -861 0 -561 3 -848 10 -861 7 -13
21 -19 45 -19 70 0 65 -61 65 880 0 941 5 880 -65 880 -24 0 -38 -6 -45 -19z"/>
<path d="M3212 5018 c-17 -17 -17 -1719 0 -1736 7 -7 26 -12 43 -12 64 0 60
-64 63 866 3 941 6 894 -61 894 -18 0 -38 -5 -45 -12z"/>
<path d="M3400 5011 c-7 -13 -10 -300 -10 -861 0 -561 3 -848 10 -861 12 -22
78 -27 98 -7 17 17 17 1719 0 1736 -20 20 -86 15 -98 -7z"/>
<path d="M5352 5018 c-17 -17 -17 -1719 0 -1736 7 -7 28 -12 48 -12 30 0 39 5
48 25 9 19 12 248 12 858 0 923 3 877 -64 877 -17 0 -37 -5 -44 -12z"/>
<path d="M5540 5011 c-14 -27 -14 -1695 0 -1722 12 -22 78 -27 98 -7 16 16 17
1699 2 1729 -8 14 -21 19 -50 19 -29 0 -42 -5 -50 -19z"/>
<path d="M5736 5014 c-14 -14 -16 -106 -16 -860 0 -564 3 -852 10 -865 8 -14
21 -19 50 -19 29 0 42 5 50 19 14 27 14 1695 0 1722 -13 24 -72 26 -94 3z"/>
<path d="M5926 5014 c-8 -20 -8 -1708 0 -1728 7 -19 74 -22 92 -4 17 17 17
1719 0 1736 -18 18 -85 15 -92 -4z"/>
<path d="M2706 3189 c-35 -28 -35 -70 1 -99 26 -20 32 -21 466 -18 421 3 439
4 453 22 20 28 17 73 -6 96 -19 19 -33 20 -454 20 -423 0 -434 0 -460 -21z"/>
<path d="M5225 3185 c-30 -29 -32 -55 -6 -86 l19 -24 441 -3 441 -3 25 25 c32
32 32 60 0 91 l-24 25 -436 0 -436 0 -24 -25z"/>
<path d="M2587 3002 c-23 -25 -21 -68 3 -92 20 -20 33 -20 573 -20 303 0 557
4 563 8 37 24 39 93 4 112 -12 6 -233 10 -573 10 -524 0 -555 -1 -570 -18z"/>
<path d="M5110 3000 c-11 -11 -20 -31 -20 -45 0 -14 9 -34 20 -45 20 -20 33
-20 575 -20 542 0 555 0 575 20 25 25 26 72 2 93 -17 15 -71 17 -575 17 -544
0 -557 0 -577 -20z"/>
<path d="M2086 2764 c-22 -22 -20 -70 4 -94 20 -20 33 -20 2340 -20 l2319 0
21 22 c24 26 26 56 4 86 l-15 22 -2329 0 c-2104 0 -2330 -2 -2344 -16z"/>
<path d="M1350 2510 c-25 -25 -26 -72 -2 -93 17 -16 246 -17 3084 -17 2957 0
3065 1 3081 18 23 25 21 68 -3 92 -20 20 -33 20 -3080 20 -3047 0 -3060 0
-3080 -20z"/>
</g>
</svg>
